<svg width="24" height="30" viewBox="0 0 24 30" fill="none" xmlns="http://www.w3.org/2000/svg">
<path d="M12.0954 6.86731C13.3449 6.86731 14.9112 5.95927 15.8439 4.74855C16.6886 3.65133 17.3045 2.11901 17.3045 0.586689C17.3045 0.378596 17.2869 0.170502 17.2518 0.000244141C15.8615 0.0569968 14.1896 1.00288 13.1865 2.27035C12.3946 3.23515 11.673 4.74855 11.673 6.29979C11.673 6.5268 11.7082 6.75381 11.7258 6.82948C11.8138 6.8484 11.9546 6.86731 12.0954 6.86731ZM7.6958 29.7576C9.40285 29.7576 10.1596 28.5279 12.289 28.5279C14.4536 28.5279 14.9288 29.7197 16.8294 29.7197C18.6948 29.7197 19.9443 27.8658 21.1234 26.0497C22.4433 23.9688 22.9888 21.9257 23.024 21.8311C22.9008 21.7933 19.3284 20.2231 19.3284 15.8153C19.3284 11.994 22.1441 10.2725 22.3025 10.1401C20.4371 7.26458 17.6037 7.18891 16.8294 7.18891C14.7352 7.18891 13.0281 8.55098 11.9546 8.55098C10.7931 8.55098 9.26206 7.26458 7.44943 7.26458C4.00013 7.26458 0.498047 10.3292 0.498047 16.118C0.498047 19.7123 1.80033 23.5148 3.40179 25.974C4.77446 28.055 5.97116 29.7576 7.6958 29.7576Z" fill="#000100"/>
</svg>
